<svg enable-background="new 0 0 128 128" height="83.54189658164978" width="94.64804446697235" xmlns="http://www.w3.org/2000/svg"><rect id="backgroundrect" width="100%" height="100%" x="0" y="0" fill="none" stroke="none"/><g class="currentLayer" style=""><title>Layer 1</title><path d="m83.73072814941406,47.41812074184418 v-1.4589999914169312 c0,-8.130000114440918 -6.613999843597412,-14.744999885559082 -14.744000434875488,-14.744999885559082 h-12.434000015258789 c-0.46000000834465027,-3.9590001106262207 -3.6059999465942383,-7.105000019073486 -7.565000057220459,-7.565000057220459 v-7.27400016784668 c2.0179998874664307,-0.4580000042915344 3.5320000648498535,-2.257999897003174 3.5320000648498535,-4.4120001792907715 c0,-2.499000072479248 -2.0329999923706055,-4.531000137329102 -4.5320000648498535,-4.531000137329102 s-4.531000137329102,2.0329999923706055 -4.531000137329102,4.531000137329102 c0,2.1540000438690186 1.5140000581741333,3.9549999237060547 3.5309998989105225,4.4120001792907715 v7.27400016784668 c-3.9590001106262207,0.46000000834465027 -7.105000019073486,3.6070001125335693 -7.565000057220459,7.565000057220459 h-12.432999610900879 c-8.130999565124512,0 -14.744999885559082,6.613999843597412 -14.744999885559082,14.744999885559082 v1.4589999914169312 c-4.288000106811523,0.49799999594688416 -7.627999782562256,4.146999835968018 -7.627999782562256,8.565999984741211 s3.3399999141693115,8.067000389099121 7.627999782562256,8.5649995803833 v2.0269999504089355 c0,8.130000114440918 6.613999843597412,14.744999885559082 14.744999885559082,14.744999885559082 h41.99700164794922 c8.130000114440918,0 14.744000434875488,-6.613999843597412 14.744000434875488,-14.744999885559082 v-2.0269999504089355 c4.288000106811523,-0.49799999594688416 7.627999782562256,-4.145999908447266 7.627999782562256,-8.5649995803833 s-3.3399999141693115,-8.067999839782715 -7.627999782562256,-8.565999984741211 z" fill="#e6e7e8" id="svg_1" class=""/><path d="m64.98670959472656,76.32014787197113 h-41.99700164794922 c-7.559000015258789,0 -13.744999885559082,-6.184999942779541 -13.744999885559082,-13.744999885559082 v-20.615999221801758 c0,-7.559000015258789 6.184999942779541,-13.744000434875488 13.744999885559082,-13.744000434875488 h41.99700164794922 c7.559000015258789,0 13.744999885559082,6.184999942779541 13.744999885559082,13.744000434875488 v20.617000579833984 c-0.0010000000474974513,7.559000015258789 -6.185999870300293,13.744000434875488 -13.744999885559082,13.744000434875488 z" fill="#6dc9f7" id="svg_3" class=""/><path d="m64.98670959472656,28.215121626853943 h-41.99700164794922 c-7.559000015258789,0 -13.744999885559082,6.184999942779541 -13.744999885559082,13.744999885559082 v3 c0,-7.559999942779541 6.184999942779541,-13.744999885559082 13.744999885559082,-13.744999885559082 h41.99700164794922 c7.559999942779541,0 13.744999885559082,6.184999942779541 13.744999885559082,13.744999885559082 v-3 c-0.0010000000474974513,-7.559999942779541 -6.185999870300293,-13.744999885559082 -13.744999885559082,-13.744999885559082 z" fill="#fff" id="svg_4" class=""/><path d="m22.989700317382812,69.44814622402191 c-3.7899999618530273,0 -6.872000217437744,-3.0829999446868896 -6.872000217437744,-6.872000217437744 v-20.617000579833984 c0,-3.7899999618530273 3.0829999446868896,-6.872000217437744 6.872000217437744,-6.872000217437744 h41.99700164794922 c3.7899999618530273,0 6.872000217437744,3.0829999446868896 6.872000217437744,6.872000217437744 v20.617000579833984 c0,3.7899999618530273 -3.0829999446868896,6.872000217437744 -6.872000217437744,6.872000217437744 z" fill="#ffd7e5" id="svg_5" class=""/><path d="m9.244704246520996,44.355117201805115 v15.255999565124512 c-4.215000152587891,0 -7.627999782562256,-3.4130001068115234 -7.627999782562256,-7.627999782562256 s3.4130001068115234,-7.627999782562256 7.627999782562256,-7.627999782562256 z" fill="#0089ef" id="svg_6" class=""/><path d="m86.35972595214844,51.98312318325043 c0,4.215000152587891 -3.4130001068115234,7.627999782562256 -7.627999782562256,7.627999782562256 v-15.255999565124512 c4.214000225067139,0 7.627999782562256,3.4130001068115234 7.627999782562256,7.627999782562256 z" fill="#0089ef" id="svg_7" class=""/><path d="m43.98769760131836,20.587119460105896 c-4.215000152587891,0 -7.627999782562256,3.4130001068115234 -7.627999782562256,7.627999782562256 h15.256999969482422 c0,-4.215000152587891 -3.4140000343322754,-7.627999782562256 -7.629000186920166,-7.627999782562256 z" fill="#0089ef" id="svg_8" class=""/><circle cx="43.98770147562027" cy="7.964126348495483" fill="#fa759e" r="3.5319995880126953" id="svg_9" class=""/><g fill="#3a2c60" id="svg_11" class=""><path d="m30.06169891357422,43.64345872402191 c-2.361999988555908,0 -4.295000076293945,1.9329999685287476 -4.295000076293945,4.295000076293945 s1.9329999685287476,4.295000076293945 4.295000076293945,4.295000076293945 c2.361999988555908,0 4.295000076293945,-1.9329999685287476 4.295000076293945,-4.295000076293945 s-1.9320000410079956,-4.295000076293945 -4.295000076293945,-4.295000076293945 z" id="svg_12"/><circle cx="57.914703488349915" cy="47.93846869468689" r="4.2949981689453125" id="svg_13"/><path d="m47.54869842529297,57.15346086025238 c-0.052000001072883606,0.06599999964237213 -1.2910000085830688,1.621000051498413 -3.561000108718872,1.621000051498413 c-2.312000036239624,0 -3.486999988555908,-1.5240000486373901 -3.546999931335449,-1.6019999980926514 c-0.3240000009536743,-0.4429999887943268 -0.9449999928474426,-0.5429999828338623 -1.3919999599456787,-0.22100000083446503 c-0.4480000138282776,0.3230000138282776 -0.5490000247955322,0.9480000138282776 -0.22599999606609344,1.3960000276565552 c0.07100000232458115,0.0989999994635582 1.7890000343322754,2.427000045776367 5.164000034332275,2.427000045776367 c3.2890000343322754,0 5.076000213623047,-2.309999942779541 5.150000095367432,-2.4079999923706055 c0.3319999873638153,-0.43799999356269836 0.2460000067949295,-1.059000015258789 -0.1889999955892563,-1.3940000534057617 c-0.43299999833106995,-0.3319999873638153 -1.0609999895095825,-0.2540000081062317 -1.3990000486373901,0.1809999942779541 z" id="svg_14"/><path d="m79.73072052001953,42.85946214199066 v-1.4589999914169312 c0,-8.130000114440918 -6.613999843597412,-14.744999885559082 -14.744000434875488,-14.744999885559082 h-12.434000015258789 c-0.46000000834465027,-3.9590001106262207 -3.6059999465942383,-7.105000019073486 -7.565000057220459,-7.565000057220459 v-7.27400016784668 c2.0179998874664307,-0.4580000042915344 3.5320000648498535,-2.257999897003174 3.5320000648498535,-4.4120001792907715 c0,-2.499000072479248 -2.0329999923706055,-4.5320000648498535 -4.5320000648498535,-4.5320000648498535 s-4.531000137329102,2.0329999923706055 -4.531000137329102,4.5320000648498535 c0,2.1540000438690186 1.5140000581741333,3.9539999961853027 3.5309998989105225,4.4120001792907715 v7.27400016784668 c-3.9590001106262207,0.46000000834465027 -7.105000019073486,3.6070001125335693 -7.565000057220459,7.565000057220459 h-12.432999610900879 c-8.130999565124512,0 -14.744999885559082,6.613999843597412 -14.744999885559082,14.744999885559082 v1.4589999914169312 c-4.288000106811523,0.49799999594688416 -7.627999782562256,4.145999908447266 -7.627999782562256,8.565999984741211 c0,4.419000148773193 3.3399999141693115,8.067000389099121 7.627999782562256,8.5649995803833 v2.0269999504089355 c0,8.130000114440918 6.613999843597412,14.744999885559082 14.744999885559082,14.744999885559082 h41.99700164794922 c8.130000114440918,0 14.744000434875488,-6.613999843597412 14.744000434875488,-14.744999885559082 v-2.0269999504089355 c4.288000106811523,-0.49799999594688416 7.627999782562256,-4.145999908447266 7.627999782562256,-8.5649995803833 c0,-4.420000076293945 -3.3399999141693115,-8.067999839782715 -7.627999782562256,-8.565999984741211 zm-38.27399826049805,-35.45399856567383 c0,-1.3960000276565552 1.1360000371932983,-2.5320000648498535 2.5309998989105225,-2.5320000648498535 c1.3960000276565552,0 2.5320000648498535,1.1360000371932983 2.5320000648498535,2.5320000648498535 s-1.1360000371932983,2.5309998989105225 -2.5320000648498535,2.5309998989105225 c-1.3949999809265137,0 -2.5309998989105225,-1.1349999904632568 -2.5309998989105225,-2.5309998989105225 zm2.5309998989105225,13.623000144958496 c3.313999891281128,0 6.068999767303467,2.446000099182129 6.552999973297119,5.627999782562256 h-13.104999542236328 c0.4830000102519989,-3.181999921798706 3.23799991607666,-5.627999782562256 6.552000045776367,-5.627999782562256 zm-41.37099838256836,30.39699935913086 c0,-3.315000057220459 2.446000099182129,-6.068999767303467 5.627999782562256,-6.552999973297119 v13.105999946594238 c-3.181999921798706,-0.48500001430511475 -5.627999782562256,-3.239000082015991 -5.627999782562256,-6.552999973297119 zm75.11399841308594,10.592000007629395 c0,7.0269999504089355 -5.7170000076293945,12.744999885559082 -12.744000434875488,12.744999885559082 h-41.99700164794922 c-7.0269999504089355,0 -12.744999885559082,-5.7170000076293945 -12.744999885559082,-12.744999885559082 v-2.9639999866485596 v-15.256999969482422 v-2.3959999084472656 c0,-7.0269999504089355 5.7179999351501465,-12.744999885559082 12.744999885559082,-12.744999885559082 h13.369999885559082 h15.255999565124512 h13.371000289916992 c7.0269999504089355,0 12.744000434875488,5.7170000076293945 12.744000434875488,12.744999885559082 v2.3959999084472656 v15.255999565124512 zm2,-4.039999961853027 v-13.105999946594238 c3.181999921798706,0.48399999737739563 5.627999782562256,3.23799991607666 5.627999782562256,6.552999973297119 s-2.446000099182129,6.068999767303467 -5.627999782562256,6.552999973297119 z" id="svg_15"/></g></g></svg>